<svg xmlns="http://www.w3.org/2000/svg" width="1000" height="1000" viewBox="0 0 1000 1000">
  <defs>
    <style>
      .cls-1 {
        fill: #5b7444;
      }

      .cls-2 {
        fill: #fc3;
      }

      .cls-3 {
        fill: #fff;
        fill-rule: evenodd;
      }
    </style>
  </defs>
  <circle id="Elipse_1" data-name="Elipse 1" class="cls-1" cx="122.875" cy="467.875" r="107.406"/>
  <circle id="Elipse_1_copiar" data-name="Elipse 1 copiar" class="cls-2" cx="122.859" cy="467.891" r="53.703"/>
  <path id="Pequi" class="cls-3" d="M237.052,436.683a119.553,119.553,0,0,0-11.943-28.6,121.793,121.793,0,0,0-18.5-24.222,116.39,116.39,0,0,0-23.886-18.671,119.965,119.965,0,0,0-28.175-12.027,116.872,116.872,0,0,0-62.742,0,119.922,119.922,0,0,0-28.175,12.027,116.318,116.318,0,0,0-23.886,18.671,119.168,119.168,0,0,0-18.419,24.222,121.437,121.437,0,0,0-11.859,28.6,120.081,120.081,0,0,0,6.224,80.74A123.323,123.323,0,0,0,27.8,538.617a115.684,115.684,0,0,0,15.812,18v93.355a8.916,8.916,0,0,0,3.2,7.317,10.911,10.911,0,0,0,7.065,2.608,9,9,0,0,0,7.065-3.028,10.1,10.1,0,0,0,2.691-6.9V571.754A111.04,111.04,0,0,0,91.8,583.781a118.291,118.291,0,0,0,31.371,4.121,113.925,113.925,0,0,0,31.371-4.289,119.881,119.881,0,0,0,28.175-12.027A117.837,117.837,0,0,0,206.607,553,120.873,120.873,0,0,0,237.052,436.683Zm-23.381,70.395a99.372,99.372,0,0,1-52.4,52.818,97.1,97.1,0,0,1-70.059,2.439,99.508,99.508,0,0,1-27.586-14.971v-91a9.028,9.028,0,0,0-3.112-7.317,10.6,10.6,0,0,0-6.981-2.607,9.527,9.527,0,0,0-7.149,2.859,9.755,9.755,0,0,0-2.775,7.065v69.975a92.331,92.331,0,0,1-13.625-26.829,101.18,101.18,0,0,1-4.71-31.035,99.041,99.041,0,0,1,59.714-91.758,96.913,96.913,0,0,1,76.282,0,99.15,99.15,0,0,1,52.4,52.9,98.137,98.137,0,0,1,7.738,38.856A97.1,97.1,0,0,1,213.671,507.078Zm268.461-34.23a135.093,135.093,0,0,0-4.2-34.147,127.846,127.846,0,0,0-11.859-29.941,117.844,117.844,0,0,0-42.3-43.9,113.193,113.193,0,0,0-28.259-12.111,119.409,119.409,0,0,0-62.826,0A119.464,119.464,0,0,0,304.5,364.605a118.125,118.125,0,0,0-54.163,133.137A120.457,120.457,0,0,0,262.2,526.086,117.043,117.043,0,0,0,304.5,568.474a119.259,119.259,0,0,0,28.175,11.859,119.526,119.526,0,0,0,73.507-3.448,118.734,118.734,0,0,0,35.408-21.279q3.7-3.363,3.364-7.233a10.455,10.455,0,0,0-2.944-6.56,11.231,11.231,0,0,0-6.644-3.28,9.019,9.019,0,0,0-7.569,2.607,95.029,95.029,0,0,1-29.1,17.242,97.54,97.54,0,0,1-34.651,6.139,95.3,95.3,0,0,1-25.988-3.532,102.259,102.259,0,0,1-23.466-9.84,93.718,93.718,0,0,1-19.848-15.307,98.217,98.217,0,0,1-15.223-19.849,100.249,100.249,0,0,1-9.84-23.465,96.857,96.857,0,0,1-3.533-26.241,95.327,95.327,0,0,1,7.654-38.015,97.762,97.762,0,0,1,52.06-52.06,99.092,99.092,0,0,1,73.423-1.178,97.619,97.619,0,0,1,50.8,44.66A96.848,96.848,0,0,1,461.106,453H310.9a9.83,9.83,0,0,0-6.981,2.775,9.388,9.388,0,0,0-2.944,7.149,10.088,10.088,0,0,0,2.692,6.9,9.192,9.192,0,0,0,7.233,3.028H482.132Zm252.145-36.165a119.553,119.553,0,0,0-11.943-28.6,121.8,121.8,0,0,0-18.5-24.222,116.411,116.411,0,0,0-23.885-18.671,119.983,119.983,0,0,0-28.175-12.027,116.873,116.873,0,0,0-62.742,0,119.911,119.911,0,0,0-28.175,12.027,116.309,116.309,0,0,0-23.886,18.671,119.183,119.183,0,0,0-18.419,24.222,121.408,121.408,0,0,0-11.858,28.6,122.253,122.253,0,0,0,0,63.583,121.313,121.313,0,0,0,11.858,28.595,117.958,117.958,0,0,0,42.305,42.725,119.828,119.828,0,0,0,28.175,12.027A113.894,113.894,0,0,0,620.4,587.9a118.325,118.325,0,0,0,31.371-4.121,111.092,111.092,0,0,0,28.175-12.027v78.217a9.918,9.918,0,0,0,2.691,7.065,9.668,9.668,0,0,0,7.4,2.86,10.281,10.281,0,0,0,6.9-2.608,9.142,9.142,0,0,0,3.027-7.317V556.616a114.456,114.456,0,0,0,16.064-18,116.46,116.46,0,0,0,12.111-21.194,124.428,124.428,0,0,0,7.654-23.549A121.807,121.807,0,0,0,734.277,436.683Zm-20.522,62.826a95.747,95.747,0,0,1-13.793,26.829V456.363a9.93,9.93,0,0,0-2.691-7.065,9.465,9.465,0,0,0-7.233-2.859,10.705,10.705,0,0,0-6.9,2.607,8.916,8.916,0,0,0-3.195,7.317v91a99.555,99.555,0,0,1-27.587,14.971,97.328,97.328,0,0,1-70.143-2.439,98.77,98.77,0,0,1-52.06-52.818,97.967,97.967,0,0,1-7.654-38.6,99.043,99.043,0,0,1,59.714-91.758,96.915,96.915,0,0,1,76.283,0,99.15,99.15,0,0,1,52.4,52.9A101.318,101.318,0,0,1,713.755,499.509Zm195.459,75.105V358.129a10.28,10.28,0,0,0-2.607-6.9,8.75,8.75,0,0,0-6.981-3.028,9.766,9.766,0,0,0-9.588,9.924v145.5a61.3,61.3,0,0,1-17.325,43.061,60.346,60.346,0,0,1-18.924,13.036,56.59,56.59,0,0,1-23.129,4.794,55.415,55.415,0,0,1-22.96-4.794,59.838,59.838,0,0,1-18.671-13.036,61.711,61.711,0,0,1-17.242-43.061l-0.336-145.5a10.475,10.475,0,0,0-2.523-6.9,8.317,8.317,0,0,0-6.729-3.028,10.4,10.4,0,0,0-6.98,2.691,9.072,9.072,0,0,0-3.112,7.233v145.5A80.624,80.624,0,0,0,758.247,535a81.769,81.769,0,0,0,16.82,25.736,79.743,79.743,0,0,0,24.979,17.409,76.619,76.619,0,0,0,63.667-1.093,78.06,78.06,0,0,0,25.989-20.1l0.336,17.662a10.26,10.26,0,0,0,2.607,6.9,8.744,8.744,0,0,0,6.981,3.028,9.766,9.766,0,0,0,9.588-9.924h0ZM993.4,289.668a23.03,23.03,0,0,0-4.457-7.149,21.071,21.071,0,0,0-6.645-4.878,19.449,19.449,0,0,0-8.326-1.766,19.053,19.053,0,0,0-8.158,1.766,20.1,20.1,0,0,0-6.56,4.878,23.832,23.832,0,0,0-4.374,7.149,23.828,23.828,0,0,0,0,17.158,23.8,23.8,0,0,0,4.374,7.149,20.061,20.061,0,0,0,6.56,4.878,19.053,19.053,0,0,0,8.158,1.766,19.449,19.449,0,0,0,8.326-1.766,21.025,21.025,0,0,0,6.645-4.878A23.576,23.576,0,0,0,993.4,289.668Zm-9.84,284.946V355.438a9.334,9.334,0,0,0-2.355-7.233,8.814,8.814,0,0,0-6.9-3.028,10.217,10.217,0,0,0-6.98,2.776,9.521,9.521,0,0,0-3.112,7.485V574.614a10.082,10.082,0,0,0,2.691,6.9,9,9,0,0,0,7.065,3.028,9.544,9.544,0,0,0,6.56-2.775,9.256,9.256,0,0,0,3.028-7.149h0Zm-5.971-272.246a5.281,5.281,0,0,1-3.617,1.43,4.785,4.785,0,0,1-3.364-1.43,5.394,5.394,0,0,1-1.514-4.121,5.457,5.457,0,0,1,1.514-4.037,5.033,5.033,0,0,1,3.7-1.514,4.668,4.668,0,0,1,3.365,1.514,5.457,5.457,0,0,1,1.514,4.037A5.242,5.242,0,0,1,977.591,302.368Z"/>
  <path id="tech" class="cls-3" d="M751.029,647.482v16.436H739.2V675h11.829v29.26c0,14.444,7.6,22.039,20.917,21.665a29.06,29.06,0,0,0,12.327-2.739l-3.735-10.957a18.519,18.519,0,0,1-7.844,2.117c-5.977,0-8.841-3.611-8.841-10.086V675h18.054V663.918H763.978v-17.8Zm103.207,51.8c2.366-25.027-11.081-37.105-30.879-37.105-19.174,0-32.248,13.323-32.248,32,0,19.673,12.949,32.5,33.12,32.5,9.463,0,20.046-3.486,26.4-10.459l-8.342-8.093c-3.735,4.233-11.579,6.6-17.805,6.6-11.206,0-18.926-6.1-20.046-15.439h49.8Zm-49.555-10.833c1.992-9.712,9.712-14.816,19.05-14.816,10.334,0,17.432,5.1,18.179,14.816H804.681ZM910.5,708.617a19.885,19.885,0,0,1-14.568,5.728c-10.584,0-19.548-6.848-19.548-19.8,0-12.2,8.591-20.046,19.672-20.046a19.9,19.9,0,0,1,13.821,5.479l8.218-8.592a29.8,29.8,0,0,0-22.163-9.089c-17.8,0-32.373,11.081-32.373,32.248S878.248,726.8,895.929,726.8a31.591,31.591,0,0,0,23.283-9.588Zm20.154-70.6v87.158h12.825v-32c0-10.086,6.972-18.3,16.933-18.3,9.463,0,15.44,5.727,15.44,17.307v33h12.824v-33.12c0-17.556-7.968-29.135-25.275-29.135-7.347,0-14.568,2.49-19.922,9.96V638.019H930.651Z"/>
</svg>
